<svg width="66" height="65" viewBox="0 0 66 65" fill="none" xmlns="http://www.w3.org/2000/svg">
<g id="mage:instagram-circle">
<path id="Vector" d="M37.1109 33.1583C37.0946 34.0163 36.8239 34.8501 36.3331 35.554C35.8424 36.258 35.1536 36.8003 34.3543 37.1124C33.5549 37.4245 32.6809 37.4922 31.843 37.3069C31.0051 37.1217 30.2411 36.6919 29.6478 36.0719C29.0545 35.452 28.6586 34.6698 28.5103 33.8246C28.362 32.9794 28.468 32.1092 28.8148 31.3243C29.1616 30.5394 29.7337 29.8752 30.4585 29.4158C31.1832 28.9564 32.0281 28.7225 32.886 28.7438C34.0259 28.786 35.1046 29.2705 35.8933 30.0946C36.682 30.9188 37.1188 32.0177 37.1109 33.1583Z" fill="#E87900"/>
<path id="Vector_2" d="M40.2336 19.5891H25.5409C24.0871 19.5891 22.6928 20.1666 21.6648 21.1947C20.6368 22.2227 20.0593 23.617 20.0593 25.0708V40.0939C20.0593 40.8138 20.2011 41.5266 20.4765 42.1916C20.752 42.8567 21.1558 43.461 21.6648 43.97C22.1738 44.479 22.7781 44.8828 23.4432 45.1583C24.1083 45.4338 24.8211 45.5756 25.5409 45.5756H40.2336C40.9535 45.5756 41.6663 45.4338 42.3314 45.1583C42.9965 44.8828 43.6007 44.479 44.1098 43.97C44.6188 43.461 45.0226 42.8567 45.298 42.1916C45.5735 41.5266 45.7153 40.8138 45.7153 40.0939V25.0979C45.7182 24.3759 45.5785 23.6605 45.3044 22.9926C45.0302 22.3248 44.627 21.7176 44.1178 21.2058C43.6085 20.6941 43.0033 20.2878 42.3368 20.0104C41.6703 19.733 40.9556 19.5898 40.2336 19.5891ZM32.8859 40.5056C31.4315 40.5384 30.0002 40.1371 28.7748 39.3529C27.5494 38.5688 26.5854 37.4372 26.0059 36.1028C25.4264 34.7684 25.2577 33.2915 25.5212 31.8607C25.7847 30.43 26.4686 29.1102 27.4855 28.0698C28.5024 27.0294 29.8063 26.3155 31.2307 26.0194C32.6551 25.7233 34.1354 25.8583 35.4827 26.4072C36.83 26.9561 37.9832 27.894 38.7952 29.1012C39.6071 30.3084 40.041 31.7301 40.0413 33.1849C40.0524 34.1355 39.8761 35.079 39.5225 35.9614C39.1689 36.8438 38.6448 37.6479 37.9803 38.3277C37.3158 39.0076 36.5239 39.5498 35.6498 39.9235C34.7757 40.2972 33.8365 40.495 32.8859 40.5056ZM40.8376 25.867C40.6589 25.8671 40.482 25.8314 40.3172 25.7622C40.1524 25.693 40.0031 25.5917 39.878 25.464C39.7529 25.3364 39.6545 25.1851 39.5886 25.019C39.5227 24.8529 39.4907 24.6753 39.4943 24.4966C39.4943 24.1332 39.6386 23.7846 39.8957 23.5276C40.1527 23.2706 40.5012 23.1262 40.8647 23.1262C41.2281 23.1262 41.5767 23.2706 41.8337 23.5276C42.0907 23.7846 42.2351 24.1332 42.2351 24.4966C42.2405 24.6901 42.204 24.8824 42.1281 25.0605C42.0523 25.2386 41.9388 25.3981 41.7956 25.5283C41.6523 25.6584 41.4826 25.7561 41.2981 25.8145C41.1136 25.873 40.9186 25.8909 40.7266 25.867H40.8376Z" fill="#E87900"/>
<path id="Vector_3" d="M32.886 5.4166C25.7031 5.38068 18.8001 8.19965 13.6955 13.2534C8.59104 18.3071 5.70318 25.1816 5.66727 32.3645C5.63136 39.5475 8.45033 46.4505 13.504 51.555C18.5578 56.6595 25.4322 59.5474 32.6152 59.5833C36.1718 59.6011 39.6971 58.9181 42.9898 57.5735C46.2825 56.2289 49.2782 54.2488 51.8057 51.7465C54.3332 49.2442 56.343 46.2685 57.7205 42.9894C59.098 39.7103 59.8162 36.192 59.8339 32.6354C59.8517 29.0787 59.1688 25.5534 57.8242 22.2607C56.4795 18.968 54.4995 15.9724 51.9972 13.4449C49.4948 10.9174 46.5192 8.90751 43.2401 7.53002C39.961 6.15252 36.4427 5.43438 32.886 5.4166ZM49.3337 39.8178C49.3413 41.0329 49.1076 42.2374 48.6462 43.3614C48.1847 44.4855 47.5048 45.5067 46.6457 46.3661C45.7867 47.2254 44.7656 47.9056 43.6417 48.3674C42.5178 48.8291 41.3134 49.0632 40.0983 49.056H25.6791C24.4643 49.0628 23.2602 48.8286 22.1364 48.3669C21.0127 47.9052 19.9917 47.2253 19.1326 46.3664C18.2734 45.5074 17.5931 44.4867 17.1311 43.3631C16.6691 42.2395 16.4346 41.0354 16.441 39.8206V25.3987C16.4335 24.1836 16.6672 22.9792 17.1286 21.8551C17.59 20.7311 18.27 19.7098 19.129 18.8505C19.9881 17.9912 21.0092 17.3109 22.1331 16.8492C23.257 16.3874 24.4614 16.1534 25.6764 16.1606H40.0983C41.3131 16.1534 42.5173 16.3873 43.641 16.8489C44.7648 17.3105 45.7857 17.9905 46.6448 18.8495C47.5038 19.7085 48.1838 20.7295 48.6454 21.8532C49.1069 22.977 49.3409 24.1812 49.3337 25.396V39.8178Z" fill="#E87900"/>
</g>
</svg>
