<svg width="57" height="57" viewBox="0 0 57 57" fill="none" xmlns="http://www.w3.org/2000/svg">
<g id="entypo-social:youtube-with-circle">
<path id="Vector" d="M32.8063 28.0347L26.5496 25.1153C26.0036 24.8618 25.5551 25.1459 25.5551 25.7504V31.2494C25.5551 31.8539 26.0036 32.1381 26.5496 31.8846L32.8035 28.9652C33.3523 28.7089 33.3523 28.291 32.8063 28.0347ZM28.3408 1.75708C13.571 1.75708 1.59796 13.7301 1.59796 28.4999C1.59796 43.2698 13.571 55.2428 28.3408 55.2428C43.1107 55.2428 55.0837 43.2698 55.0837 28.4999C55.0837 13.7301 43.1107 1.75708 28.3408 1.75708ZM28.3408 39.3642C14.6518 39.3642 14.4122 38.1302 14.4122 28.4999C14.4122 18.8697 14.6518 17.6357 28.3408 17.6357C42.0298 17.6357 42.2694 18.8697 42.2694 28.4999C42.2694 38.1302 42.0298 39.3642 28.3408 39.3642Z" fill="#E87900"/>
</g>
</svg>
