<svg width="56" height="56" viewBox="0 0 56 56" fill="none" xmlns="http://www.w3.org/2000/svg">
<circle cx="27.9651" cy="27.965" r="21.4616" fill="#E87900"/>
<circle cx="27.9651" cy="27.9651" r="27.9651" fill="#E87900" fill-opacity="0.2"/>
<path d="M35.5322 26.9152C35.4567 26.9908 35.367 27.0508 35.2683 27.0917C35.1696 27.1326 35.0639 27.1536 34.957 27.1536C34.8502 27.1536 34.7444 27.1326 34.6457 27.0917C34.547 27.0508 34.4574 26.9908 34.3819 26.9152L28.4535 20.9858V36.9083C28.4535 37.1239 28.3678 37.3307 28.2154 37.4832C28.0629 37.6356 27.8561 37.7213 27.6405 37.7213C27.4249 37.7213 27.2181 37.6356 27.0657 37.4832C26.9132 37.3307 26.8276 37.1239 26.8276 36.9083V20.9858L20.8992 26.9152C20.7466 27.0677 20.5397 27.1534 20.324 27.1534C20.1083 27.1534 19.9014 27.0677 19.7489 26.9152C19.5963 26.7627 19.5106 26.5558 19.5106 26.34C19.5106 26.1243 19.5963 25.9174 19.7489 25.7649L27.0654 18.4484C27.1409 18.3728 27.2305 18.3128 27.3292 18.2719C27.4279 18.231 27.5337 18.21 27.6405 18.21C27.7474 18.21 27.8531 18.231 27.9518 18.2719C28.0505 18.3128 28.1402 18.3728 28.2157 18.4484L35.5322 25.7649C35.6078 25.8404 35.6677 25.93 35.7086 26.0287C35.7496 26.1274 35.7706 26.2332 35.7706 26.34C35.7706 26.4469 35.7496 26.5527 35.7086 26.6514C35.6677 26.75 35.6078 26.8397 35.5322 26.9152Z" fill="#171829"/>
</svg>
