<svg width="37" height="37" viewBox="0 0 37 37" fill="none" xmlns="http://www.w3.org/2000/svg">
<path d="M16.6407 18.2544L7.17833 8.79429C7.07225 8.68822 6.98811 8.56229 6.9307 8.4237C6.8733 8.2851 6.84375 8.13656 6.84375 7.98655C6.84375 7.83654 6.8733 7.688 6.9307 7.54941C6.98811 7.41082 7.07225 7.28489 7.17833 7.17881C7.2844 7.07274 7.41033 6.9886 7.54892 6.93119C7.68751 6.87379 7.83605 6.84424 7.98606 6.84424C8.13607 6.84424 8.28462 6.87379 8.42321 6.93119C8.5618 6.9886 8.68773 7.07274 8.7938 7.17881L18.2539 16.6412L27.714 7.17881C27.9283 6.96459 28.2188 6.84424 28.5218 6.84424C28.8247 6.84424 29.1153 6.96459 29.3295 7.17881C29.5437 7.39304 29.6641 7.68359 29.6641 7.98655C29.6641 8.28951 29.5437 8.58007 29.3295 8.79429L19.8671 18.2544L29.3295 27.7145C29.5437 27.9288 29.6641 28.2193 29.6641 28.5223C29.6641 28.8252 29.5437 29.1158 29.3295 29.33C29.1153 29.5442 28.8247 29.6646 28.5218 29.6646C28.2188 29.6646 27.9283 29.5442 27.714 29.33L18.2539 19.8676L8.7938 29.33C8.57958 29.5442 8.28902 29.6646 7.98606 29.6646C7.6831 29.6646 7.39255 29.5442 7.17833 29.33C6.9641 29.1158 6.84375 28.8252 6.84375 28.5223C6.84375 28.2193 6.9641 27.9288 7.17833 27.7145L16.6407 18.2544Z" fill="#F8F8F8"/>
</svg>
