<svg width="56" height="57" viewBox="0 0 56 57" fill="none" xmlns="http://www.w3.org/2000/svg">
    <path
        d="M51.071 28.6852C51.044 34.3849 48.921 39.8755 45.1066 44.1107C41.2922 48.346 36.0529 51.0299 30.3871 51.6511V34.9995H35.8425C36.0825 35.0008 36.3147 34.9142 36.4952 34.7559C36.6758 34.5977 36.792 34.3788 36.8221 34.1406L37.4117 29.0288C37.4331 28.8946 37.4248 28.7573 37.3875 28.6266C37.3503 28.4959 37.2849 28.375 37.196 28.2722C37.1072 28.1694 36.9969 28.0872 36.873 28.0314C36.749 27.9757 36.6144 27.9477 36.4785 27.9493H30.3871V23.7708C30.3871 21.8301 30.928 20.5045 33.7021 20.5045H36.2835C36.5399 20.4978 36.7835 20.3911 36.9622 20.2072C37.141 20.0233 37.2407 19.7767 37.24 19.5202V15.1234C37.2339 14.8671 37.1278 14.6232 36.9443 14.4441C36.7608 14.2649 36.5145 14.1646 36.258 14.1647H32.0817C30.9087 14.0808 29.7314 14.2539 28.6321 14.672C27.5329 15.09 26.538 15.7429 25.7171 16.585C24.8962 17.4272 24.2689 18.4383 23.879 19.5479C23.4892 20.6575 23.3462 21.8388 23.46 23.0093V27.9215H19.358C19.2299 27.9214 19.1031 27.9471 18.9851 27.9968C18.8671 28.0466 18.7602 28.1195 18.6709 28.2113C18.5815 28.303 18.5114 28.4117 18.4648 28.531C18.4181 28.6503 18.3958 28.7777 18.3992 28.9058V34.0129C18.3992 34.2672 18.5003 34.511 18.6801 34.6908C18.8599 34.8707 19.1037 34.9717 19.358 34.9717H23.46V51.3076C18.1926 50.2917 13.4396 47.4829 10.009 43.3587C6.57851 39.2345 4.68218 34.0495 4.64246 28.6852C4.64246 22.5284 7.08824 16.6238 11.4418 12.2703C15.7953 7.91673 21.6999 5.47095 27.8567 5.47095C34.0136 5.47095 39.9182 7.91673 44.2717 12.2703C48.6252 16.6238 51.071 22.5284 51.071 28.6852Z"
        fill="#E87900" />
</svg>