<svg width="53" height="53" viewBox="0 0 53 53" fill="none" xmlns="http://www.w3.org/2000/svg">
    <path
        d="M26.4825 0.964355C12.3793 0.964355 0.946777 12.3969 0.946777 26.5001C0.946777 40.6032 12.3793 52.0358 26.4825 52.0358C40.5857 52.0358 52.0182 40.6032 52.0182 26.5001C52.0182 12.3969 40.5857 0.964355 26.4825 0.964355ZM20.2316 37.0841H15.0606V20.4433H20.2316V37.0841ZM17.6141 18.4005C15.9809 18.4005 14.9249 17.2434 14.9249 15.8123C14.9249 14.352 16.0128 13.2295 17.6806 13.2295C19.3484 13.2295 20.3699 14.352 20.4018 15.8123C20.4018 17.2434 19.3484 18.4005 17.6141 18.4005ZM39.1173 37.0841H33.9464V27.862C33.9464 25.7154 33.1963 24.2577 31.3263 24.2577C29.8979 24.2577 29.0494 25.2446 28.6743 26.1942C28.536 26.532 28.5014 27.0108 28.5014 27.4869V37.0814H23.3278V25.75C23.3278 23.6725 23.2613 21.9356 23.1921 20.4407H27.6848L27.9215 22.7522H28.0253C28.7062 21.6669 30.374 20.0656 33.1643 20.0656C36.5664 20.0656 39.1173 22.3452 39.1173 27.2449V37.0841Z"
        fill="#E87900" />
</svg>