<svg width="55" height="55" viewBox="0 0 55 55" fill="none" xmlns="http://www.w3.org/2000/svg">
    <path
        d="M31.8063 27.0347L25.5496 24.1153C25.0036 23.8618 24.5551 24.1459 24.5551 24.7504V30.2494C24.5551 30.8539 25.0036 31.1381 25.5496 30.8846L31.8035 27.9652C32.3523 27.7089 32.3523 27.291 31.8063 27.0347ZM27.3408 0.75708C12.571 0.75708 0.597961 12.7301 0.597961 27.4999C0.597961 42.2698 12.571 54.2428 27.3408 54.2428C42.1107 54.2428 54.0837 42.2698 54.0837 27.4999C54.0837 12.7301 42.1107 0.75708 27.3408 0.75708ZM27.3408 38.3642C13.6518 38.3642 13.4122 37.1302 13.4122 27.4999C13.4122 17.8697 13.6518 16.6357 27.3408 16.6357C41.0298 16.6357 41.2694 17.8697 41.2694 27.4999C41.2694 37.1302 41.0298 38.3642 27.3408 38.3642Z"
        fill="#E87900" />
</svg>